<svg height="512pt" viewBox="0 -20 512 512" width="512pt" xmlns="http://www.w3.org/2000/svg"><path d="m512 10.019531c0-5.53125-4.484375-10.019531-10.019531-10.019531h-466.625c-5.53125 0-10.019531 4.488281-10.019531 10.019531v31.742188h-15.316407c-5.535156 0-10.019531 4.488281-10.019531 10.019531 0 5.535156 4.484375 10.019531 10.019531 10.019531h15.316407v107.910157h-15.316407c-5.535156 0-10.019531 4.488281-10.019531 10.019531 0 5.535156 4.484375 10.019531 10.019531 10.019531h15.316407v6.125c0 5.535156 4.488281 10.019531 10.019531 10.019531 5.535156 0 10.019531-4.484375 10.019531-10.019531v-6.125h21.546875c5.535156 0 10.019531-4.484375 10.019531-10.019531 0-5.53125-4.484375-10.019531-10.019531-10.019531h-21.546875v-107.910157h21.546875c5.535156 0 10.019531-4.484375 10.019531-10.019531 0-5.53125-4.484375-10.019531-10.019531-10.019531h-21.546875v-21.722657h43.09375v430.972657h-43.09375v-23.667969h21.546875c5.535156 0 10.019531-4.488281 10.019531-10.019531 0-5.535157-4.484375-10.019531-10.019531-10.019531h-21.546875v-107.910157h21.546875c5.535156 0 10.019531-4.488281 10.019531-10.019531 0-5.535156-4.484375-10.019531-10.019531-10.019531h-21.546875v-7.332031c0-5.53125-4.484375-10.019532-10.019531-10.019532-5.53125 0-10.019531 4.488282-10.019531 10.019532v7.332031h-15.316407c-5.535156 0-10.019531 4.484375-10.019531 10.019531 0 5.53125 4.484375 10.019531 10.019531 10.019531h15.316407v107.90625h-15.316407c-5.535156 0-10.019531 4.488281-10.019531 10.019531 0 5.535157 4.484375 10.019532 10.019531 10.019532h15.316407v33.691406c0 5.53125 4.488281 10.019531 10.019531 10.019531h397.699219c5.535156 0 10.019531-4.488281 10.019531-10.019531v-222.339844h58.90625c5.535156 0 10.019531-4.488281 10.019531-10.019531v-145.167969c0-.152344-.015625-.300781-.023438-.449218.007813-.152344.023438-.300782.023438-.449219zm-68.925781 83.5h48.886719v52.546875h-48.886719zm48.886719-20.933593h-48.886719v-52.546876h48.886719zm-68.925782 378.425781h-314.527344v-430.972657h314.527344zm68.925782-232.359375h-48.886719v-52.546875h48.886719zm0 0"/><path d="m165.472656 384.585938h74.988282c5.535156 0 10.019531-4.484376 10.019531-10.019532 0-5.53125-4.484375-10.019531-10.019531-10.019531h-74.988282c-5.535156 0-10.019531 4.488281-10.019531 10.019531 0 5.535156 4.484375 10.019532 10.019531 10.019532zm0 0"/><path d="m315.449219 397.613281h-149.976563c-5.535156 0-10.019531 4.484375-10.019531 10.019531 0 5.53125 4.484375 10.019532 10.019531 10.019532h149.976563c5.535156 0 10.019531-4.488282 10.019531-10.019532 0-5.535156-4.484375-10.019531-10.019531-10.019531zm0 0"/><path d="m26.191406 238.613281c1.578125 3.898438 5.328125 6.261719 9.289063 6.261719 1.253906 0 2.527343-.234375 3.757812-.734375 5.128907-2.078125 7.605469-7.917969 5.527344-13.046875l-.242187-.601562c-2.078126-5.128907-7.917969-7.601563-13.050782-5.527344-5.128906 2.074218-7.601562 7.917968-5.523437 13.046875zm0 0"/><path d="m314.941406 190.5625-5.824218-2.03125c10.101562-10.1875 16.351562-24.191406 16.351562-39.636719v-37.847656c0-3.210937-.285156-6.355469-.800781-9.421875-.070313-.855469-.191407-1.753906-.394531-2.703125-1.691407-7.882813-5.117188-15.097656-9.835938-21.308594-10.269531-13.871093-26.742188-22.882812-45.289062-22.882812h-6.753907c-18.757812 0-35.390625 9.222656-45.632812 23.367187-6.714844 9.066406-10.679688 20.136719-10.679688 32.085938 0 .066406.007813.125.007813.1875 0 .226562-.015625.449218-.015625.679687v37.847657c0 15.734374 6.496093 29.976562 16.9375 40.207031l-4.179688 1.457031c-37.910156 13.230469-63.378906 49.097656-63.378906 89.246094v57.082031c0 5.53125 4.484375 10.019531 10.019531 10.019531h202.828125c5.535157 0 10.019531-4.488281 10.019531-10.019531v-57.082031c0-40.152344-25.472656-76.015625-63.378906-89.246094zm-88.828125-41.667969v-25.582031c6.097657 1.835938 11.601563 2.757812 16.734375 2.757812 5.65625 0 10.871094-1.109374 15.964844-3.335937 19.386719-8.46875 29.742188-7.132813 42.257812-4.324219 1.386719.308594 2.851563.425782 4.359376.363282v30.121093c0 20.007813-16.273438 36.28125-36.277344 36.28125h-6.757813c-20.007812 0-36.28125-16.277343-36.28125-36.28125zm41.699219-74.128906c11.992188 0 22.929688 5.398437 29.882812 13.925781.097657.128906.199219.253906.296876.382813.160156.199219.308593.414062.464843.621093 1.925781 2.640626 3.511719 5.546876 4.675781 8.660157-16.570312-3.457031-30.84375-3.375-52.339843 6.015625-4.070313 1.777344-9.390625 2.914062-20.640625-.785156-1.066406-.351563-2.101563-.582032-3.09375-.734376 1.128906-4.859374 3.226562-9.347656 6.089844-13.246093 6.835937-8.976563 18.003906-14.839844 30.601562-14.839844zm-5.417969 130.449219h6.753907c3.039062 0 6.023437-.25 8.933593-.714844l-6.570312 14.441406c-1.644531 3.027344-4.519531 3.308594-5.675781 3.261719-1.167969-.027344-4.015626-.4375-5.503907-3.542969l-5.519531-13.96875c2.480469.335938 5.007812.523438 7.582031.523438zm95.886719 121.652344h-32.8125v-42.808594c0-5.535156-4.484375-10.019532-10.019531-10.019532-5.53125 0-10.019531 4.484376-10.019531 10.019532v42.808594h-79.644532v-42.808594c0-5.535156-4.484375-10.019532-10.019531-10.019532s-10.019531 4.484376-10.019531 10.019532v42.808594h-30.253906v-47.058594c0-31.640625 20.070312-59.902344 49.945312-70.328125l8.542969-2.980469 7.816406 19.78125c.058594.144531.117187.289062.179687.429688 4.191407 9.316406 13.140626 15.265624 23.355469 15.523437 10.1875.25 19.449219-5.230469 24.105469-14.324219.070312-.136718.136719-.277344.203125-.417968l9.625-21.175782 9.074219 3.164063c29.871094 10.425781 49.941406 38.6875 49.941406 70.328125zm0 0"/><path d="m284.847656 384.890625c1.25 0 2.523438-.234375 3.753906-.730469 5.128907-2.074218 7.605469-7.914062 5.53125-13.046875l-.242187-.601562c-2.074219-5.132813-7.914063-7.609375-13.046875-5.535157-5.128906 2.074219-7.605469 7.914063-5.53125 13.046876l.242188.601562c1.578124 3.898438 5.328124 6.265625 9.292968 6.265625zm0 0"/></svg>