<?xml version="1.0" encoding="UTF-8" standalone="no"?>
<!-- Created with Inkscape (http://www.inkscape.org/) -->

<svg
   xmlns:dc="http://purl.org/dc/elements/1.1/"
   xmlns:cc="http://creativecommons.org/ns#"
   xmlns:rdf="http://www.w3.org/1999/02/22-rdf-syntax-ns#"
   xmlns:svg="http://www.w3.org/2000/svg"
   xmlns="http://www.w3.org/2000/svg"
   xmlns:sodipodi="http://sodipodi.sourceforge.net/DTD/sodipodi-0.dtd"
   xmlns:inkscape="http://www.inkscape.org/namespaces/inkscape"
   version="1.1"
   id="svg815"
   width="80.639999"
   height="80.639999"
   viewBox="0 0 80.639999 80.639999"
   sodipodi:docname="icon.svg"
   inkscape:label="background"
   inkscape:version="0.92.2 (5c3e80d, 2017-08-06)">
  <metadata
     id="metadata821">
    <rdf:RDF>
      <cc:Work
         rdf:about="">
        <dc:format>image/svg+xml</dc:format>
        <dc:type
           rdf:resource="http://purl.org/dc/dcmitype/StillImage" />
        <dc:title></dc:title>
      </cc:Work>
    </rdf:RDF>
  </metadata>
  <defs
     id="defs819" />
  <sodipodi:namedview
     pagecolor="#ffffff"
     bordercolor="#666666"
     borderopacity="1"
     objecttolerance="10"
     gridtolerance="10"
     guidetolerance="10"
     inkscape:pageopacity="0"
     inkscape:pageshadow="2"
     inkscape:window-width="1366"
     inkscape:window-height="705"
     id="namedview817"
     showgrid="false"
     inkscape:zoom="6.671627"
     inkscape:cx="44.74171"
     inkscape:cy="40.32"
     inkscape:window-x="1358"
     inkscape:window-y="-8"
     inkscape:window-maximized="1"
     inkscape:current-layer="g894" />
  <path
     style="display:inline;fill:#001f5a;stroke-width:0.23999999"
     d="M 37.588997,77.671122 C 24.535483,76.17122 13.210685,68.162135 7.5969196,56.460222 3.2556296,47.41079 2.6312661,37.378267 5.8131208,27.797426 10.148615,14.742881 21.664349,4.9128913 35.366297,2.5704265 39.095241,1.9329319 44.47379,1.9313999 48.190332,2.5667765 61.993274,4.9265071 73.429982,14.789724 77.77239,28.078865 c 1.488867,4.556395 1.692802,5.978872 1.694801,11.82136 0.0017,4.642709 -0.06497,5.578099 -0.551388,7.749778 -0.840506,3.752522 -1.588985,5.870642 -3.282876,9.290222 -4.055678,8.187482 -11.303164,14.870865 -19.773662,18.234597 -5.735167,2.2775 -12.331185,3.178728 -18.270268,2.496303 z"
     id="path875"
     inkscape:connector-curvature="0"
     inkscape:label="background" />
  <g
     id="g894"
     inkscape:label="icon">
    <g
       id="g885"
       inkscape:label="bottomDots">
      <path
         style="display:inline;fill:#ffffff;stroke-width:0.23999999"
         d="m 40.417529,61.75966 c 0.0506,-1.934988 -0.01219,-2.671779 -0.24,-2.816326 -0.467578,-0.296676 -1.974576,-0.241068 -2.300532,0.08489 -0.314187,0.314187 -0.417867,5.022135 -0.117219,5.32278 0.09393,0.09393 0.714929,0.138931 1.38,0.100001 l 1.209219,-0.07078 z"
         id="path873"
         inkscape:connector-curvature="0" />
      <path
         style="display:inline;fill:#ffffff;stroke-width:0.23999999"
         d="m 46.657528,61.75966 c 0.0506,-1.934988 -0.01219,-2.671779 -0.24,-2.816326 -0.467577,-0.296676 -1.974576,-0.241068 -2.300532,0.08489 -0.314186,0.314187 -0.417866,5.022135 -0.117218,5.32278 0.09393,0.09393 0.714929,0.138931 1.38,0.100001 l 1.209218,-0.07078 z"
         id="path871"
         inkscape:connector-curvature="0" />
    </g>
    <path
       id="path869"
       d="m 54.388996,56.340222 c 0.180862,-0.337941 0.181872,-0.620167 0.0034,-0.953613 -0.232044,-0.433579 -0.552264,-0.479223 -3.788443,-0.54 l -3.534965,-0.06639 -0.06184,-14.68878 -0.06184,-14.688779 0.874725,-0.164098 c 1.308507,-0.245479 4.62787,0.07663 6.386158,0.619714 2.745694,0.848056 4.491785,2.990796 5.586369,6.855384 0.456804,1.612804 0.847404,2.028165 1.9023,2.022885 1.413706,-0.0071 1.419694,-0.02884 1.230574,-4.471692 -0.09469,-2.224545 -0.245122,-4.63863 -0.334299,-5.36463 l -0.162139,-1.32 -20.225421,-0.06136 -20.225421,-0.06136 -0.201377,0.541365 c -0.110757,0.297749 -0.272679,1.999364 -0.359828,3.781364 -0.08715,1.782 -0.223663,3.965131 -0.303365,4.851403 -0.139965,1.556373 -0.124022,1.620919 0.466883,1.890153 0.349017,0.159024 0.971341,0.211304 1.448877,0.121716 0.798029,-0.149709 0.861484,-0.23789 1.360178,-1.890153 1.1249,-3.727008 2.686239,-5.707152 5.259118,-6.669787 1.7187,-0.643049 4.864229,-1.063234 6.322437,-0.844563 l 1.13792,0.170643 v 14.745292 14.745295 h -3.595428 -3.595428 l -0.151373,0.603118 c -0.337879,1.346217 -0.614184,1.316882 12.403171,1.316882 11.716541,0 11.967444,-0.0099 12.219057,-0.48 z"
       style="display:inline;fill:#ffffff;stroke-width:0.23999999"
       inkscape:connector-curvature="0"
       inkscape:label="t" />
    <g
       id="g879"
       inkscape:label="topDots">
      <path
         style="display:inline;fill:#ffffff;stroke-width:0.23999999"
         d="m 40.089367,21.394545 c 0.315142,-0.120931 0.37963,-0.60579 0.37963,-2.854322 0,-2.97106 -0.01478,-3 -1.53163,-3 -1.209893,0 -1.34837,0.311806 -1.34837,3.036074 0,2.089737 0.06322,2.496901 0.42,2.704702 0.473599,0.275846 1.510012,0.332413 2.08037,0.113546 z"
         id="path867"
         inkscape:connector-curvature="0" />
      <path
         style="display:inline;fill:#ffffff;stroke-width:0.23999999"
         d="m 46.329367,21.394545 c 0.315141,-0.120931 0.379629,-0.60579 0.379629,-2.854322 0,-2.97106 -0.01477,-3 -1.531629,-3 -1.209893,0 -1.348371,0.311806 -1.348371,3.036074 0,2.089737 0.06323,2.496901 0.42,2.704702 0.4736,0.275846 1.510013,0.332413 2.080371,0.113546 z"
         id="path853"
         inkscape:connector-curvature="0" />
    </g>
  </g>
</svg>
