<?xml version="1.0" encoding="UTF-8" standalone="no"?>
<!DOCTYPE svg PUBLIC "-//W3C//DTD SVG 20010904//EN"
              "http://www.w3.org/TR/2001/REC-SVG-20010904/DTD/svg10.dtd">

<svg xmlns="http://www.w3.org/2000/svg"
     width="1.93056in" height="0.513889in"
     viewBox="0 0 139 37">
  <path id="Selection"
        fill="none" stroke="black" stroke-width="2"
        d="M 10.00,10.00
           C 10.00,10.00 7.00,26.00 7.00,26.00
             7.00,26.00 14.00,26.00 14.00,26.00
             14.00,26.00 13.00,30.00 13.00,30.00
             13.00,30.00 0.00,30.00 0.00,30.00
             0.00,30.00 4.00,10.00 4.00,10.00
             4.00,10.00 10.00,10.00 10.00,10.00 Z" />
 <path id="Selection #1"
       fill="none" stroke="black" stroke-width="2"
       d="M 27.67,17.60
          C 30.93,20.43 29.80,28.90 23.00,29.85
            13.74,31.14 11.24,21.61 19.10,16.74
            21.91,16.04 25.24,15.48 27.67,17.60 Z
          M 32.43,28.97
          C 28.61,26.32 31.11,19.83 34.14,17.60
            37.14,15.39 43.31,16.00 47.00,16.00
            47.00,16.00 44.00,30.00 44.00,30.00
            41.50,29.92 34.16,30.17 32.43,28.97 Z
          M 20.00,26.00
          C 23.83,24.66 23.67,23.91 24.00,20.00
            20.17,21.34 20.33,22.09 20.00,26.00 Z
          M 36.00,26.00
          C 39.35,24.11 39.37,23.76 40.00,20.00
            36.65,21.89 36.63,22.24 36.00,26.00 Z" />
  <path id="Selection #2"
        fill="none" stroke="black" stroke-width="2"
        d="M 65.00,9.00
           C 65.00,9.00 61.00,30.00 61.00,30.00
             58.27,30.00 51.53,30.43 49.43,28.98
             45.83,26.48 47.43,20.29 51.13,17.60
             53.54,15.85 56.19,16.04 59.00,16.00
             59.32,10.66 59.46,9.44 65.00,9.00 Z
           M 53.00,26.00
           C 56.35,24.11 56.37,23.76 57.00,20.00
             53.65,21.89 53.63,22.24 53.00,26.00 Z" />
 <path id="Selection #3"
       fill="none" stroke="black" stroke-width="2"
       d="M 73.00,9.00
          C 73.00,9.00 73.00,13.00 73.00,13.00
            73.00,13.00 67.00,12.00 67.00,12.00
            67.00,12.00 67.00,10.00 67.00,10.00
            67.00,10.00 73.00,9.00 73.00,9.00 Z
          M 72.00,16.00
          C 72.00,16.00 70.00,26.00 70.00,26.00
            70.00,26.00 72.00,30.00 72.00,30.00
            72.00,30.00 65.00,30.00 65.00,30.00
            65.00,23.28 63.68,16.70 72.00,16.00 Z" />
  <path id="Selection #4"
        fill="none" stroke="black" stroke-width="2"
        d="M 87.40,17.02
           C 89.95,19.04 88.80,27.16 86.42,28.98
             85.14,29.95 83.50,29.87 82.00,30.00
             82.00,30.00 84.00,20.00 84.00,20.00
             75.77,24.52 82.73,29.19 73.00,30.00
             73.00,30.00 75.00,16.00 75.00,16.00
             77.65,16.00 85.51,15.52 87.40,17.02 Z" />
 <path id="Selection #5"
       fill="none" stroke="black" stroke-width="2"
       d="M 94.13,17.60
          C 97.17,15.39 103.28,16.00 107.00,16.00
            105.96,21.16 104.58,32.19 99.89,34.83
            97.17,36.35 92.14,36.00 89.00,36.00
            89.00,36.00 90.00,31.00 90.00,31.00
            94.09,31.86 94.26,31.89 98.00,30.00
            86.54,29.60 90.12,20.51 94.13,17.60 Z
          M 96.00,26.00
          C 99.35,24.11 99.37,23.76 100.00,20.00
            96.65,21.89 96.63,22.24 96.00,26.00 Z" />
  <path id="Selection #6"
        fill="none" stroke="black" stroke-width="2"
        d="M 115.00,30.00
           C 115.00,30.00 115.00,25.00 115.00,25.00
             122.05,25.59 122.05,29.41 115.00,30.00 Z" />
 <path id="Selection #7"
       fill="none" stroke="black" stroke-width="2"
       d="M 123.00,30.00
          C 123.00,30.00 123.00,25.00 123.00,25.00
            130.05,25.59 130.05,29.41 123.00,30.00 Z" />
  <path id="Selection #8"
        fill="none" stroke="black" stroke-width="2"
        d="M 131.00,30.00
           C 131.00,30.00 131.00,25.00 131.00,25.00
             138.05,25.59 138.05,29.41 131.00,30.00 Z" />
</svg>
