<?xml version="1.0" encoding="UTF-8" standalone="no"?>
<!DOCTYPE svg PUBLIC "-//W3C//DTD SVG 20010904//EN"
              "http://www.w3.org/TR/2001/REC-SVG-20010904/DTD/svg10.dtd">

<svg xmlns="http://www.w3.org/2000/svg"
     width="3.95889in" height="4.38603in"
     viewBox="0 0 380 421">
  <path id="Selection"
        fill="none" stroke="black" stroke-width="4"
        d="M 175.83,363.00
           C 175.83,363.00 200.83,336.00 200.83,336.00
             200.83,336.00 284.09,246.00 284.09,246.00
             308.06,220.27 333.69,195.70 348.14,163.00
             357.14,142.62 359.72,121.22 348.69,101.00
             346.45,96.90 342.73,91.55 339.70,88.00
             338.05,86.06 334.02,82.31 333.45,80.04
             332.58,76.55 340.40,69.51 342.72,67.02
             343.86,65.79 345.38,63.87 347.09,63.45
             351.22,62.44 358.77,72.92 361.10,76.00
             374.09,93.11 378.10,106.97 379.68,128.00
             379.92,131.24 379.31,132.89 379.09,136.00
             376.76,168.04 361.25,193.16 342.12,218.00
             342.12,218.00 304.32,259.83 304.32,259.83
             304.32,259.83 228.17,341.99 228.17,341.99
             228.17,341.99 178.04,396.00 178.04,396.00
             172.75,401.54 161.37,414.97 156.00,419.00
             156.00,419.00 120.70,356.00 120.70,356.00
             120.70,356.00 104.00,326.00 104.00,326.00
             104.00,326.00 132.00,315.00 132.00,315.00
             132.00,315.00 150.26,354.00 150.26,354.00
             150.26,354.00 161.00,378.00 161.00,378.00
             161.00,378.00 163.00,378.00 163.00,378.00
             166.27,372.16 171.38,367.92 175.83,363.00 Z" />

    <path id="Selection #1"
        fill="none" stroke="black" stroke-width="4"
        d="M 10.00,151.00
           C -3.71,109.90 -7.18,60.90 28.43,29.26
             39.87,19.09 48.08,13.34 63.00,9.63
             67.39,8.53 72.58,6.53 77.00,8.00
             69.36,10.83 61.73,17.28 56.00,23.00
             25.00,54.01 34.80,98.61 49.20,135.00
             49.20,135.00 65.00,172.00 65.00,172.00
             65.00,172.00 23.00,182.00 23.00,182.00
             18.32,173.74 13.05,160.14 10.00,151.00 Z
            M 110.00,1.04
           C 110.00,1.04 118.00,1.04 118.00,1.04
             118.00,1.04 128.00,0.00 128.00,0.00
             157.28,-0.34 196.47,9.47 212.54,36.00
             218.84,46.41 219.92,56.46 222.00,68.00
             222.00,68.00 189.00,88.00 189.00,88.00
             183.81,48.84 164.90,17.90 124.00,9.21
             114.76,7.25 105.41,7.00 96.00,7.00
             91.19,7.00 83.26,7.69 79.00,6.00
             79.00,6.00 110.00,1.04 110.00,1.04 Z" />

    <path id="Selection #3"
        fill="none" stroke="red" stroke-width="4"
        d="M 143.66,180.00
           C 169.89,141.39 208.21,96.52 248.00,71.81
             268.80,58.89 290.27,49.49 315.00,48.09
             318.32,47.90 326.99,48.80 330.00,50.00
             330.00,50.00 310.00,59.87 310.00,59.87
             279.35,77.46 250.86,104.29 226.91,130.00
             201.81,156.96 178.24,185.95 159.85,218.00
             151.19,233.09 143.93,246.79 137.45,263.00
             137.45,263.00 128.49,286.61 128.49,286.61
             125.05,290.39 108.56,294.69 103.00,296.29
             99.80,297.21 87.74,300.94 85.18,300.53
             82.34,300.09 80.98,297.19 79.58,295.00
             79.58,295.00 69.00,279.00 69.00,279.00
             52.71,254.56 41.92,235.31 31.00,208.00
             38.82,204.57 69.16,194.11 77.00,193.00
             80.47,205.84 96.88,236.39 105.00,247.00
             114.20,225.64 130.52,199.34 143.66,180.00 Z" />
</svg>
